<svg xmlns="http://www.w3.org/2000/svg" viewBox="0 0 75.02 74.77"><defs><style>.cls-1{fill:#ee2e24;}.cls-2{fill:#fff;}</style></defs><g id="Layer_2" data-name="Layer 2"><g id="Layer_1-2" data-name="Layer 1"><rect class="cls-1" x="0.25" width="74.77" height="74.77"/><path class="cls-2" d="M6.35,50.73A3.37,3.37,0,0,1,6.1,52a3.26,3.26,0,0,1-.68,1,3.17,3.17,0,0,1-1,.64,3.23,3.23,0,0,1-1.25.23A3.12,3.12,0,0,1,2,53.67a3.21,3.21,0,0,1-1-.64,3.12,3.12,0,0,1-.69-1A3.19,3.19,0,0,1,0,50.73V40.16a3.29,3.29,0,0,1,.25-1.33,2.94,2.94,0,0,1,.69-1,3,3,0,0,1,1-.63A3.3,3.3,0,0,1,3.17,37a3.42,3.42,0,0,1,1.25.22,3,3,0,0,1,1,.63,3.06,3.06,0,0,1,.68,1,3.46,3.46,0,0,1,.25,1.33ZM4.51,40.16a1.25,1.25,0,0,0-.4-1,1.37,1.37,0,0,0-.94-.35,1.39,1.39,0,0,0-.95.35,1.3,1.3,0,0,0-.38,1V50.73a1.28,1.28,0,0,0,.38,1,1.39,1.39,0,0,0,.95.35,1.37,1.37,0,0,0,.94-.35,1.23,1.23,0,0,0,.4-1Z"/><path class="cls-2" d="M14.05,53.61H12.42l-3-10v10H7.7V37.26H9.54l2.8,10.09V37.26h1.71Z"/><path class="cls-2" d="M24.47,39.1h-1.9V53.61H20.73V39.1H18.87V37.26h5.6Z"/><path class="cls-2" d="M31.72,53.61H29.88V46.24H27.21v7.37H25.37V37.26h1.84V44.4h2.67V37.26h1.84Z"/><path class="cls-2" d="M38.54,53.61h-5.4V37.26h5.4V39.1H35v5.18H37v1.84H35v5.65h3.57Z"/><path class="cls-2" d="M49.94,53.61H48.11V47.85a3.85,3.85,0,0,0-.09-.92,1,1,0,0,0-.27-.54.9.9,0,0,0-.49-.26,3.1,3.1,0,0,0-.74-.08H45.43v7.56H43.6V37.26h3.17a3,3,0,0,1,2.29.83,3.43,3.43,0,0,1,.78,2.45V42.8a2.37,2.37,0,0,1-.4,1.43,2.14,2.14,0,0,1-1.06.78,2.21,2.21,0,0,1,1.1.83,3,3,0,0,1,.46,1.78ZM48,40.85a2.33,2.33,0,0,0-.3-1.31,1.53,1.53,0,0,0-1.31-.44h-1v5.26h1a1.64,1.64,0,0,0,1.23-.4A2,2,0,0,0,48,42.59Z"/><path class="cls-2" d="M57.61,50.73A3.37,3.37,0,0,1,57.36,52a3.26,3.26,0,0,1-.68,1,3.11,3.11,0,0,1-1,.64,3.4,3.4,0,0,1-2.46,0,3.21,3.21,0,0,1-1-.64,3.12,3.12,0,0,1-.69-1,3.19,3.19,0,0,1-.25-1.29V40.16a3.29,3.29,0,0,1,.25-1.33,2.94,2.94,0,0,1,.69-1,3,3,0,0,1,1-.63,3.55,3.55,0,0,1,2.46,0,2.92,2.92,0,0,1,1,.63,3.06,3.06,0,0,1,.68,1,3.46,3.46,0,0,1,.25,1.33ZM55.77,40.16a1.25,1.25,0,0,0-.4-1,1.45,1.45,0,0,0-1.89,0,1.27,1.27,0,0,0-.38,1V50.73a1.25,1.25,0,0,0,.38,1,1.45,1.45,0,0,0,1.89,0,1.23,1.23,0,0,0,.4-1Z"/><path class="cls-2" d="M65.06,53.61H63.2l-.27-2H60.61l-.25,2h-2l2.5-16.35h1.7Zm-2.34-3.74-.94-7.16-1,7.16Z"/><path class="cls-2" d="M72.54,50.42a3.69,3.69,0,0,1-.22,1.25,2.91,2.91,0,0,1-1.63,1.69,3.35,3.35,0,0,1-1.33.25H66.19V37.26h3.17a3.54,3.54,0,0,1,1.33.24,2.8,2.8,0,0,1,1,.67,3.08,3.08,0,0,1,.63,1,3.78,3.78,0,0,1,.22,1.28Zm-1.84-10a1.3,1.3,0,0,0-.39-1,1.38,1.38,0,0,0-1-.35H68V51.77h1.34a1.28,1.28,0,0,0,1-.39,1.34,1.34,0,0,0,.39-1Z"/><path class="cls-2" d="M5,71.37H0V55H1.88V69.53H5Z"/><path class="cls-2" d="M11.38,71.37H6V55h5.41v1.84H7.81V62H9.88v1.84H7.81v5.65h3.57Z"/><path class="cls-2" d="M18.9,71.37H17.27l-3-10v10H12.55V55h1.84l2.79,10.09V55H18.9Z"/><path class="cls-2" d="M26.66,68.18a3.46,3.46,0,0,1-.22,1.25,2.81,2.81,0,0,1-.62,1,3,3,0,0,1-1,.68,3.35,3.35,0,0,1-1.33.25H20.32V55h3.17a3.54,3.54,0,0,1,1.33.24,2.8,2.8,0,0,1,1,.67,2.9,2.9,0,0,1,.62,1,3.55,3.55,0,0,1,.22,1.28Zm-1.83-10a1.31,1.31,0,0,0-.39-1,1.38,1.38,0,0,0-1-.35H22.15V69.53h1.34a1.28,1.28,0,0,0,1-.39,1.34,1.34,0,0,0,.39-1Z"/><path class="cls-2" d="M29.88,71.37H28V55h1.84Z"/><path class="cls-2" d="M37.65,71.37H36l-3-10v10H31.3V55h1.84l2.79,10.09V55h1.72Z"/><path class="cls-2" d="M45.54,71.37H44.31l-.19-.69a2.19,2.19,0,0,1-.82.73,2.65,2.65,0,0,1-1.25.25,3.58,3.58,0,0,1-1.11-.18,2.78,2.78,0,0,1-1-.59,3,3,0,0,1-.69-1A3.58,3.58,0,0,1,39,68.49V57.92a3.46,3.46,0,0,1,.25-1.33,2.94,2.94,0,0,1,.69-1A3.06,3.06,0,0,1,41,55a3.3,3.3,0,0,1,1.22-.22,3.37,3.37,0,0,1,1.24.22,2.91,2.91,0,0,1,1,.64,3.06,3.06,0,0,1,.68,1,3.26,3.26,0,0,1,.25,1.31v.55H43.53v-.55a1.24,1.24,0,0,0-.39-1,1.48,1.48,0,0,0-.94-.31,1.39,1.39,0,0,0-1,.33,1.25,1.25,0,0,0-.39,1V68.49a1.21,1.21,0,0,0,.43,1,1.42,1.42,0,0,0,1,.39,1.41,1.41,0,0,0,1-.39,1.21,1.21,0,0,0,.43-1V64H42.18V62.35h3.36Z"/></g></g></svg>